<svg xmlns="http://www.w3.org/2000/svg" viewBox="0 0 666.67 666.67">
    <path
        d="M0,333.33C0,176.2,0,97.63,48.82,48.82,97.63,0,176.2,0,333.33,0s235.7,0,284.52,48.82c48.82,48.82,48.82,127.38,48.82,284.52s0,235.7-48.82,284.52c-48.81,48.82-127.38,48.82-284.52,48.82s-235.7,0-284.52-48.82C0,569.04,0,490.47,0,333.33ZM333.33,141.67c13.81,0,25,11.19,25,25v172.98l57.32-57.32c9.76-9.76,25.59-9.76,35.35,0s9.76,25.59,0,35.35l-100,100c-4.69,4.69-11.05,7.32-17.68,7.32s-12.99-2.63-17.68-7.32l-100-100c-9.76-9.76-9.76-25.59,0-35.35,9.76-9.76,25.59-9.76,35.36,0l57.32,57.32v-172.98c0-13.81,11.19-25,25-25ZM200,475c-13.81,0-25,11.19-25,25s11.19,25,25,25h266.67c13.81,0,25-11.19,25-25s-11.19-25-25-25H200Z"
        style="fill:#e48205; fill-rule:evenodd;" />
</svg>