<?xml version="1.0" encoding="UTF-8"?><svg id="Livello_1" xmlns="http://www.w3.org/2000/svg" viewBox="0 0 1216.79 303.42"><defs><style>.cls-1{fill:#f6f6f6;}.cls-2{fill:#e48205;}</style></defs><path class="cls-1" d="M687.47,78.22c2.82,0,4.72,2.88,3.62,5.47l-65.46,153.9-27,63.44c-.62,1.45-2.04,2.39-3.62,2.39h-42.76c-2.87,0-4.77-2.97-3.57-5.58l32.6-70.55c.46-.99.48-2.13.07-3.14l-57.47-140.52c-1.06-2.59.84-5.42,3.64-5.42h45.4c1.7,0,3.2,1.09,3.73,2.7l26.94,82.08c1.18,3.6,6.26,3.61,7.46.02l27.37-82.11c.53-1.6,2.04-2.69,3.73-2.69h45.33Z"/><path class="cls-1" d="M852.76,78.22c2.17,0,3.93,1.76,3.93,3.93v87.65c0,13.91-3.1,26.13-9.29,36.66-6.19,10.54-14.83,18.8-25.91,24.77-11.08,5.98-24.01,8.96-38.78,8.96s-27.21-3.04-38.62-9.12c-11.41-6.08-20.26-14.39-26.56-24.93-6.31-10.54-9.45-22.65-9.45-36.34v-87.65c0-2.17,1.76-3.93,3.93-3.93h42.33c2.17,0,3.93,1.76,3.93,3.93v87c0,5.43.97,10.16,2.93,14.17,1.95,4.03,4.78,7.12,8.47,9.29,3.69,2.18,8.04,3.26,13.04,3.26,7.38,0,13.2-2.39,17.43-7.17,4.24-4.78,6.36-11.29,6.36-19.55v-87c0-2.17,1.76-3.93,3.93-3.93h42.33Z"/><path class="cls-1" d="M939.79,29.01c0,7.61-2.45,14.13-7.33,19.55-4.89,5.44-11.36,8.15-19.4,8.15-7.6,0-14.01-2.71-19.23-8.15-5.21-5.42-7.82-11.94-7.82-19.55s2.61-14.34,7.82-19.55,11.63-7.83,19.23-7.83c8.04,0,14.51,2.61,19.4,7.83,4.88,5.21,7.33,11.73,7.33,19.55Z"/><rect class="cls-1" x="887.97" y="78.22" width="50.19" height="158.39" rx="3.93" ry="3.93"/><rect class="cls-1" x="972.7" width="50.19" height="236.61" rx="3.93" ry="3.93"/><path class="cls-1" d="M1166.61,3.93v76.68c0,3.04-3.3,4.91-5.93,3.38-1.85-1.08-3.79-2.08-5.81-3-8.91-4.02-18.68-6.03-29.33-6.03-14.99,0-28.35,3.59-40.08,10.76-11.74,7.17-20.86,16.94-27.38,29.33-6.52,12.38-9.78,26.51-9.78,42.37s3.26,29.98,9.78,42.36c6.52,12.39,15.59,22.16,27.21,29.33,11.62,7.17,25.04,10.76,40.25,10.76,10.65,0,20.42-2.23,29.33-6.68,2.32-1.16,4.54-2.42,6.64-3.79,2.62-1.7,6.07.16,6.07,3.28h0c0,2.17,1.76,3.93,3.93,3.93h41.35c2.17,0,3.93-1.76,3.93-3.93V3.93c0-2.17-1.76-3.93-3.93-3.93h-42.32c-2.17,0-3.93,1.76-3.93,3.93ZM1165.14,176.64c-2.93,5.66-7.01,10.06-12.22,13.2-5.22,3.15-11.41,4.73-18.58,4.73-6.74,0-12.82-1.58-18.25-4.73-5.43-3.14-9.61-7.54-12.55-13.2-2.93-5.64-4.4-12.05-4.4-19.22s1.58-13.53,4.73-19.07c3.15-5.54,7.33-9.94,12.55-13.2,5.21-3.26,11.29-4.89,18.25-4.89s13.03,1.58,18.25,4.73c5.21,3.15,9.29,7.49,12.22,13.03,2.93,5.54,4.4,11.9,4.4,19.07s-1.47,13.91-4.4,19.55Z"/><rect class="cls-2" x="338.52" y="0" width="120.22" height="119.32" rx="13.33" ry="13.33"/><path class="cls-2" d="M0,13.34C0,5.98,5.97,0,13.33,0h170.76s35.1,0,35.1,0h70.88c7.36,0,13.33,5.97,13.33,13.34v276.74c0,7.36-5.97,13.33-13.33,13.33h-70.88s-21.77,0-21.77,0c-7.36,0-13.33-5.97-13.33-13.33v-157.43c0-7.36-5.97-13.33-13.33-13.33H13.34c-7.36,0-13.33-5.97-13.33-13.33V13.34Z"/></svg>