<svg id="Livello_1" xmlns="http://www.w3.org/2000/svg" viewBox="0 0 430.94 430.03">
    <defs>
        <style>.cls-1{fill:#fff;}</style>
    </defs>
    <path class="cls-1"
        d="M430.94,114.49v189.88c0,69.29-68.01,125.66-151.61,125.66h-30.38c-38.67,0-75.49-12.07-103.69-33.98L11.62,292.2C4.29,286.5.17,278.78,0,270.45c-.16-8.32,3.65-16.15,10.76-22.04,7.17-5.94,16.58-8.91,26-8.91s18.83,2.97,26,8.91l47.71,39.55c2.89,2.39,7.24,3.12,11.01,1.82,3.78-1.29,6.24-4.35,6.24-7.74V92.15c0-13.86,13.6-25.13,30.32-25.13s30.31,11.27,30.31,25.13v100.53c0,4.62,4.53,8.38,10.11,8.38s10.11-3.75,10.11-8.38V25.13c0-13.86,13.61-25.13,30.32-25.13s30.32,11.27,30.32,25.13v167.54c0,4.62,4.53,8.38,10.11,8.38s10.11-3.75,10.11-8.38V47.47c0-13.86,13.61-25.13,30.32-25.13s30.32,11.27,30.32,25.13v145.21c0,4.62,4.53,8.38,10.11,8.38s10.11-3.75,10.11-8.38v-78.19c0-13.86,13.61-25.13,30.32-25.13s30.32,11.27,30.32,25.13Z" />
</svg>